<?xml version="1.0" encoding="UTF-8"?><svg width="130px" height="48px" viewBox="0 0 130 48" version="1.1" xmlns="http://www.w3.org/2000/svg" xmlns:xlink="http://www.w3.org/1999/xlink">

    <!-- Generator: sketchtool 52.4 (67378) - http://www.bohemiancoding.com/sketch -->
    <title>ECD335B4-0A2D-435D-B39E-BEF21A181679</title>
    <desc>Created with sketchtool.</desc>
    <defs>
        <polygon id="path-1" points="0.919507111 0.121607081 24.3538027 0.121607081 24.3538027 33.8891074 0.919507111 33.8891074"></polygon>
    </defs>
    <g id="Desktop" stroke="none" stroke-width="1" fill="none" fill-rule="evenodd">
        <g id="VSS---Home---Viewport" transform="translate(-119.000000, -30.000000)">
            <g id="Navigation">
                <g id="Logo" transform="translate(119.000000, 30.000000)">
                    <g id="Group-3" transform="translate(83.432836, 0.104703)">
                        <mask id="mask-2" fill="white">
                            <use xlink:href="#path-1"></use>
                        </mask>
                        <g id="Clip-2"></g>
                        <path d="M1.94990299,19.2991402 C1.16796269,18.6196848 0.913783582,17.8224828 0.919604478,16.8901619 C0.923485075,15.9578409 1.33191791,15.1220335 1.97512687,14.5294403 L18.6888582,0.753095279 C18.8576642,0.59191764 19.0681866,0.489613271 19.2515448,0.399855664 C20.4244552,-0.171504589 22.0387836,0.164362586 22.8478881,1.14590545 L23.7084104,2.21044998 C24.7183358,3.45257945 24.5194552,5.2940581 23.276694,6.28621746 C23.276694,6.28621746 14.7704254,12.9553042 11.9550522,15.3266423 C10.1981119,16.8110208 10.3572164,17.2877977 11.9172164,18.6052078 C14.7626642,21.0064651 23.1855,27.7431113 23.1855,27.7431113 C24.4205,28.7507128 24.6028881,30.5921915 23.5832612,31.8256347 L22.7101269,32.8824582 C21.8990821,33.8591753 20.2808731,34.1815306 19.1118433,33.5985887 C18.9255746,33.5107614 18.7189328,33.4065268 18.5491567,33.2424537 C18.5491567,33.2424537 2.72893284,19.9785957 1.94990299,19.2991402" id="Fill-1" fill="#304F5C" mask="url(#mask-2)"></path>
                    </g>
                    <path d="M128.73153,28.2182337 C129.51347,28.896724 129.767649,29.693926 129.761828,30.626247 C129.757948,31.5595331 129.350485,32.3943753 128.706306,32.9869685 L111.992575,46.7633136 C111.823769,46.9254563 111.613246,47.0267956 111.429888,47.1175183 C110.256978,47.6888786 108.641679,47.3530114 107.832575,46.3714685 L106.973022,45.3059589 C105.963097,44.0638294 106.161978,42.2233159 107.403769,41.2301914 C107.403769,41.2301914 115.911007,34.5611047 118.726381,32.1897666 C120.483321,30.7063532 120.324216,30.2295762 118.764216,28.9121662 C115.918769,26.5099438 107.495933,19.7732976 107.495933,19.7732976 C106.259963,18.7666612 106.078545,16.9251825 107.098172,15.6917393 L107.970336,14.6339507 C108.781381,13.6572335 110.40056,13.3358434 111.56959,13.9178201 C111.755858,14.0066126 111.9625,14.1098821 112.132276,14.2739551 C112.132276,14.2739551 127.9525,27.5378132 128.73153,28.2182337 L115.421429,41.2301914" id="Fill-4" fill="#FFCD00"></path>
                    <path d="M23.4854701,5.17513961 L22.2145746,4.89042462 C20.7312164,4.55552258 19.2294254,5.48784353 18.8947239,6.95002391 L12.817709,33.0270217 L6.74360448,6.957745 C6.40793284,5.48784353 4.91002239,4.54973177 3.42181343,4.89042462 L2.14509701,5.17513961 C0.963455224,5.45116838 9.70149254e-05,6.6836465 9.70149254e-05,7.92095029 C9.70149254e-05,8.11783794 9.70149254e-05,8.33692371 0.0699477612,8.545393 L7.92524627,41.181452 C8.36375373,42.8588576 10.1779328,44.7428023 11.953306,44.7428023 L13.6830821,44.7428023 C15.4555448,44.7428023 17.2716642,42.8588576 17.7111418,41.1708356 L25.5557687,8.58110301 C25.6343507,8.33692371 25.6343507,8.11783794 25.6343507,7.92095029 C25.6343507,6.6836465 24.6719627,5.45116838 23.4854701,5.17513961" id="Fill-6" fill="#304F5C"></path>
                    <path d="M43.5061493,21.7652409 L39.4062985,21.7652409 C38.2081642,21.7652409 37.2700299,20.8300245 37.2700299,19.6380821 L37.2700299,13.3183744 C37.2700299,12.1254669 38.2081642,11.194111 39.4062985,11.194111 L49.5074925,11.194111 L49.5074925,7.51983995 C49.5074925,6.05283389 48.3442836,4.99311504 46.7386866,4.99311504 L38.077194,4.99311504 C33.8424925,4.99311504 30.3974925,8.42031143 30.3974925,12.6311979 L30.3974925,20.328154 C30.3974925,24.5409707 33.8424925,27.9710625 38.077194,27.9710625 L42.1770448,27.9710625 C43.3780896,27.9710625 44.3142836,28.9014532 44.3142836,30.096291 L44.3142836,36.4102079 C44.3142836,37.6060108 43.3780896,38.5354364 42.1770448,38.5354364 L29.9357015,38.5354364 L29.9357015,42.2164634 C29.9357015,43.6767135 31.1018209,44.7422232 32.7083881,44.7422232 L43.5061493,44.7422232 C47.7398806,44.7422232 51.1848806,41.3150268 51.1848806,37.1031752 L51.1848806,29.4042888 C51.1848806,25.1914721 47.7398806,21.7652409 43.5061493,21.7652409" id="Fill-8" fill="#304F5C"></path>
                    <path d="M70.2297836,21.7652409 L66.1279925,21.7652409 C64.9337388,21.7652409 63.992694,20.8300245 63.992694,19.6380821 L63.992694,13.3183744 C63.992694,12.1254669 64.9337388,11.194111 66.1279925,11.194111 L76.2330672,11.194111 L76.2330672,7.51983995 C76.2330672,6.05283389 75.0698582,4.99311504 73.463291,4.99311504 L64.8027687,4.99311504 C60.5680672,4.99311504 57.122097,8.42031143 57.122097,12.6311979 L57.122097,20.328154 C57.122097,24.5409707 60.5680672,27.9710625 64.8027687,27.9710625 L68.9016493,27.9710625 C70.1007537,27.9710625 71.0427687,28.9014532 71.0427687,30.096291 L71.0427687,36.4102079 C71.0427687,37.6060108 70.1007537,38.5354364 68.9016493,38.5354364 L56.6622463,38.5354364 L56.6622463,42.2164634 C56.6622463,43.6767135 57.8264254,44.7422232 59.4310522,44.7422232 L70.2297836,44.7422232 C74.4644851,44.7422232 77.9094851,41.3150268 77.9094851,37.1031752 L77.9094851,29.4042888 C77.9094851,25.1914721 74.4644851,21.7652409 70.2297836,21.7652409" id="Fill-10" fill="#304F5C"></path>
                </g>
            </g>
        </g>
    </g>
</svg>