<?xml version="1.0" encoding="UTF-8"?>
<svg width="178px" height="56px" viewBox="0 0 178 56" version="1.1" xmlns="http://www.w3.org/2000/svg" xmlns:xlink="http://www.w3.org/1999/xlink">
    <!-- Generator: Sketch 60.1 (88133) - https://sketch.com -->
    <title>Logo</title>
    <desc>Created with Sketch.</desc>
    <defs>
        <polygon id="path-1" points="0.391721959 0.556524487 11.3301106 0.556524487 11.3301106 11.3744076 0.391721959 11.3744076"></polygon>
    </defs>
    <g id="Symbols" stroke="none" stroke-width="1" fill="none" fill-rule="evenodd">
        <g id="-Navigation-/-Mobilityplatform-/-Inaktiv" transform="translate(-320.000000, -32.000000)">
            <g id="Navigation">
                <g id="Logo" transform="translate(320.000000, 32.000000)">
                    <path d="M47.787447,50.7265059 C49.2513919,50.7265059 50.1630302,49.9571811 50.1630302,48.8751226 L50.1630302,48.8438492 C50.1630302,47.6304426 49.231429,46.992466 47.787447,46.992466 L45.5382955,46.992466 L45.5382955,50.7202512 L47.787447,50.7202512 L47.787447,50.7265059 Z M43.6018957,46.2606692 C43.6018957,45.7415313 44.0277706,45.3412322 44.580077,45.3412322 L47.9471501,45.3412322 C50.5290164,45.3412322 52.1327014,46.7172603 52.1327014,48.8000665 L52.1327014,48.8313399 C52.1327014,51.1518237 50.1497216,52.3652303 47.7275584,52.3652303 L45.5382955,52.3652303 L45.5382955,54.8670996 C45.5382955,55.3674734 45.1124206,55.7677725 44.580077,55.7677725 C44.0277706,55.7677725 43.6018957,55.3674734 43.6018957,54.8670996 L43.6018957,46.2606692 Z" id="Fill-1" fill="#4D5C6E"></path>
                    <path d="M56.8720379,45.2939527 C56.8720379,44.7932784 57.2857703,44.3933649 57.8223294,44.3933649 C58.3394949,44.3933649 58.7532272,44.7932784 58.7532272,45.2939527 L58.7532272,53.1670545 L63.6016533,53.1670545 C64.0735668,53.1670545 64.4549763,53.5363017 64.4549763,53.9931669 C64.4549763,54.4500321 64.0735668,54.8199052 63.6016533,54.8199052 L57.8223294,54.8199052 C57.2857703,54.8199052 56.8720379,54.41874 56.8720379,53.8992905 L56.8720379,45.2939527 Z" id="Fill-3" fill="#4D5C6E"></path>
                    <path d="M75.3023394,51.2637222 L73.4375902,46.7663944 L71.5728409,51.2637222 L75.3023394,51.2637222 Z M68.3623963,54.409835 L72.3033612,45.1866156 C72.5148276,44.6952035 72.8929039,44.3933649 73.424774,44.3933649 L73.514487,44.3933649 C74.0463571,44.3933649 74.4116172,44.6952035 74.6230837,45.1866156 L78.5640485,54.409835 C78.6409454,54.5510067 78.6729858,54.6989009 78.6729858,54.8266277 C78.6729858,55.3509798 78.2949095,55.7677725 77.7950798,55.7677725 C77.3529227,55.7677725 77.0517433,55.498874 76.8851334,55.0820813 L76.0200436,52.9981177 L70.8679529,52.9981177 L69.9772307,55.1425834 C69.823437,55.5392088 69.5094414,55.7603778 69.1121409,55.7603778 C68.6251273,55.7603778 68.247051,55.3644247 68.247051,54.8535175 C68.240643,54.7123458 68.2854995,54.5711741 68.3623963,54.409835 L68.3623963,54.409835 Z" id="Fill-5" fill="#4D5C6E"></path>
                    <path d="M85.81562,47.029994 L83.3069266,47.029994 C82.8326463,47.029994 82.464455,46.6422043 82.464455,46.1856131 C82.464455,45.729022 82.8326463,45.3412322 83.3069266,45.3412322 L90.1715106,45.3412322 C90.6270693,45.3412322 90.9952607,45.729022 90.9952607,46.1856131 C90.9952607,46.6422043 90.6270693,47.029994 90.1715106,47.029994 L87.6503361,47.029994 L87.6503361,54.8670996 C87.6503361,55.3674734 87.2384611,55.7677725 86.7329781,55.7677725 C86.2274951,55.7677725 85.81562,55.3674734 85.81562,54.8670996 L85.81562,47.029994 Z" id="Fill-7" fill="#4D5C6E"></path>
                    <path d="M95.7345972,46.2618469 C95.7345972,45.7423974 96.1247162,45.3412322 96.6306518,45.3412322 L102.512915,45.3412322 C102.957895,45.3412322 103.317536,45.7111053 103.317536,46.1679705 C103.317536,46.6248357 102.957895,46.9940829 102.512915,46.9940829 L97.5084196,46.9940829 L97.5084196,49.8222663 L101.860685,49.8222663 C102.305664,49.8222663 102.665305,50.1915136 102.665305,50.6490046 C102.665305,51.105244 102.305664,51.4751171 101.860685,51.4751171 L97.5084196,51.4751171 L97.5084196,54.8671848 C97.5084196,55.367859 97.1183005,55.7677725 96.6306518,55.7677725 C96.1247162,55.7677725 95.7345972,55.367859 95.7345972,54.8671848 L95.7345972,46.2618469 Z" id="Fill-9" fill="#4D5C6E"></path>
                    <g id="Group-13" transform="translate(108.056872, 44.393365)">
                        <mask id="mask-2" fill="white">
                            <use xlink:href="#path-1"></use>
                        </mask>
                        <g id="Clip-12"></g>
                        <path d="M9.40278041,5.99665087 L9.40278041,5.96505529 C9.40278041,3.93030016 7.92410742,2.24372828 5.84511848,2.24372828 C3.76612954,2.24372828 2.31905213,3.9050237 2.31905213,5.93345972 L2.31905213,5.96505529 C2.31905213,7.99981043 3.79772512,9.67437599 5.87671406,9.67437599 C7.955703,9.66868878 9.40278041,8.02508689 9.40278041,5.99665087 M0.391721959,5.99665087 L0.391721959,5.96505529 C0.391721959,3.02034755 2.66028436,0.556524487 5.87671406,0.556524487 C9.08682464,0.556524487 11.3301106,2.98875197 11.3301106,5.93345972 L11.3301106,5.96505529 C11.3301106,8.90976303 9.06154818,11.3748499 5.84511848,11.3748499 C2.6350079,11.3748499 0.391721959,8.94135861 0.391721959,5.99665087" id="Fill-11" fill="#4D5C6E" mask="url(#mask-2)"></path>
                    </g>
                    <path d="M129.632641,50.4729327 C130.9442,50.4729327 131.78284,49.7916229 131.78284,48.7415307 L131.78284,48.710903 C131.78284,47.6039309 130.976358,46.9976276 129.62003,46.9976276 L126.952774,46.9976276 L126.952774,50.4729327 L129.632641,50.4729327 Z M125.118483,46.2606879 C125.118483,45.7418924 125.521409,45.3412322 126.045402,45.3412322 L129.771994,45.3412322 C131.083553,45.3412322 132.111361,45.7287662 132.785426,46.3788233 C133.334011,46.9419977 133.649289,47.7101902 133.649289,48.6108943 L133.649289,48.6415219 C133.649289,50.2985424 132.678231,51.3042557 131.278395,51.7299181 L133.27726,54.2301375 C133.454447,54.4482817 133.573622,54.6420487 133.573622,54.9233234 C133.573622,55.4233673 133.139168,55.7677725 132.691473,55.7677725 C132.274675,55.7677725 132.004166,55.5733804 131.796082,55.2921058 L129.260612,52.0855743 L126.952774,52.0855743 L126.952774,54.8670684 C126.952774,55.3671123 126.549217,55.7677725 126.045402,55.7677725 C125.521409,55.7677725 125.118483,55.3671123 125.118483,54.8670684 L125.118483,46.2606879 Z" id="Fill-14" fill="#4D5C6E"></path>
                    <path d="M139.336493,45.3897525 C139.336493,44.8475007 139.747022,44.3933649 140.278596,44.3933649 L140.476495,44.3933649 C140.887024,44.3933649 141.156014,44.6170438 141.341745,44.9227382 L144.550403,50.2429053 L147.778276,44.9085041 C147.976175,44.5695967 148.245165,44.3933649 148.623031,44.3933649 L148.822211,44.3933649 C149.353785,44.3933649 149.763033,44.8407226 149.763033,45.3897525 L149.763033,54.7842635 C149.763033,55.3265152 149.353785,55.7603166 148.822211,55.7603166 C148.322019,55.7603166 147.899321,55.3136367 147.899321,54.7842635 L147.899321,48.0542418 L145.3119,52.1746771 C145.114,52.49325 144.870629,52.690494 144.524785,52.690494 C144.191111,52.690494 143.947739,52.5000281 143.74984,52.1746771 L141.174587,48.0874548 L141.174587,54.8052757 C141.174587,55.3468496 140.764698,55.7677725 140.252978,55.7677725 C139.740617,55.7677725 139.343538,55.3468496 139.343538,54.8052757 L139.336493,45.3897525 Z" id="Fill-16" fill="#4D5C6E"></path>
                    <path d="M0,36.8038247 L0,12.674216 L6.14374538,12.674216 L6.14374538,14.6151476 C7.09596069,13.7503107 8.11991826,13.1297408 9.21561807,12.7468359 C10.3113179,12.363931 11.4331058,12.1724786 12.5809818,12.1724786 C14.2180095,12.1724786 15.7245967,12.5157726 17.1007435,13.189157 C18.4768903,13.8691433 19.6378103,14.7933964 20.5900257,15.9487128 C21.542241,14.9188308 22.7422931,14.0341885 24.2032262,13.2881842 C25.6641593,12.5421798 27.2750989,12.1658768 29.0425671,12.1658768 C30.7122049,12.1658768 32.2840123,12.5157726 33.7645115,13.2089625 C35.2384886,13.9021523 36.4515849,14.8528127 37.4038002,16.04774 C38.1538328,17.0116039 38.7473368,18.1273095 39.1712683,19.4080603 C39.5951998,20.6888111 39.8104265,22.2204306 39.8104265,24.0095206 L39.8104265,36.7972229 L33.4188443,36.7972229 L33.4188443,23.7718555 C33.4188443,22.6759553 33.3144919,21.8243221 33.0992652,21.2103539 C32.8840384,20.5963858 32.6035915,20.0748429 32.2383582,19.6457254 C31.7492065,19.0779699 31.1817905,18.695065 30.5426323,18.4772054 C29.9034741,18.2593457 29.2708379,18.1537168 28.6512457,18.1537168 C27.9664333,18.1537168 27.3142311,18.2593457 26.7076829,18.4772054 C26.1011348,18.695065 25.5532849,18.9591373 25.0641332,19.2760241 C24.5749815,19.5929109 24.138006,19.9428068 23.7597287,20.3191098 C23.3814514,20.7020147 23.0944824,21.0387069 22.8988217,21.3357883 C22.9640419,21.7318968 23.0162181,22.1544125 23.0488282,22.6033354 C23.0814383,23.0522584 23.0944824,23.5209868 23.0944824,24.0227242 L23.0944824,36.8104265 L16.7029001,36.8104265 L16.7029001,23.7718555 C16.7029001,22.6759553 16.5985478,21.8243221 16.383321,21.2103539 C16.1680943,20.5963858 15.8811253,20.0748429 15.522414,19.6457254 C15.0332623,19.0779699 14.4658463,18.695065 13.8266881,18.4772054 C13.1875299,18.2593457 12.5548937,18.1537168 11.9353015,18.1537168 C11.2439671,18.1537168 10.617853,18.2527439 10.043915,18.4507981 C9.46997696,18.6488524 8.94821514,18.8997211 8.47210748,19.1968024 C7.99599983,19.4938838 7.5851124,19.8173724 7.24596722,20.1672682 C6.90030001,20.5171641 6.61333101,20.8406527 6.38506022,21.137734 L6.38506022,36.8104265 L0,36.8104265 L0,36.8038247 Z" id="Fill-28" fill="#4D5C6E"></path>
                    <path d="M97.9657444,36.8104265 L103.942187,36.8104265 L103.942187,12.799978 L97.9657444,12.799978 L97.9657444,36.8104265 Z M97.6303318,4.28628687 C97.6303318,3.30747515 97.9535475,2.47975518 98.6060775,1.80312694 C99.2586075,1.13306791 100.039204,0.791469194 100.947867,0.791469194 C101.862629,0.791469194 102.643226,1.12649871 103.289657,1.80312694 C103.942187,2.47318597 104.265403,3.30747515 104.265403,4.28628687 C104.265403,5.27166779 103.936089,6.09938777 103.289657,6.7694468 C102.637127,7.43950582 101.856531,7.78110454 100.947867,7.78110454 C100.033106,7.78110454 99.2525091,7.44607503 98.6060775,6.7694468 C97.9596459,6.09938777 97.6303318,5.26509859 97.6303318,4.28628687 L97.6303318,4.28628687 Z" id="Fill-30" fill="#4D5C6E"></path>
                    <polygon id="Fill-32" fill="#4D5C6E" points="109.004739 36.8104265 115.63981 36.8104265 115.63981 1.73933649 109.004739 1.73933649"></polygon>
                    <path d="M119.760594,36.8104265 L125.737037,36.8104265 L125.737037,12.799978 L119.760594,12.799978 L119.760594,36.8104265 Z M119.43128,4.28628687 C119.43128,3.30747515 119.754495,2.47975518 120.407025,1.80312694 C121.059555,1.13306791 121.840152,0.791469194 122.748815,0.791469194 C123.663577,0.791469194 124.444173,1.12649871 125.090605,1.80312694 C125.743135,2.47318597 126.066351,3.30747515 126.066351,4.28628687 C126.066351,5.27166779 125.737037,6.09938777 125.090605,6.7694468 C124.438075,7.43950582 123.657478,7.78110454 122.748815,7.78110454 C121.834054,7.78110454 121.053457,7.44607503 120.407025,6.7694468 C119.754495,6.09938777 119.43128,5.26509859 119.43128,4.28628687 L119.43128,4.28628687 Z" id="Fill-33" fill="#4D5C6E"></path>
                    <path d="M149.514984,37.2576091 C149.092453,37.422308 148.473306,37.5474792 147.673168,37.6331227 C146.871727,37.7187661 146.162735,37.7582938 145.537729,37.7582938 C143.604115,37.7582938 141.956963,37.4486598 140.5826,36.8425678 C139.209538,36.2364757 138.115126,35.3800413 137.294805,34.2864404 C136.67045,33.4629457 136.220575,32.4813401 135.947135,31.3547994 C135.667184,30.2282587 135.531115,28.80526 135.531115,27.0858032 L135.531115,18.640042 L128.909953,18.640042 L128.909953,13.1786255 L135.531115,13.1786255 L135.531115,6.47867299 L141.910738,6.47867299 L141.910738,13.1852134 L149.763033,13.1852134 L149.763033,18.64663 L141.910738,18.64663 L141.910738,27.8302423 C141.910738,28.5951041 141.976494,29.2071254 142.106053,29.6682824 C142.236263,30.1300982 142.431577,30.5313048 142.692647,30.8607026 C143.018172,31.2230403 143.441353,31.5129104 143.968051,31.730313 C144.48889,31.9477156 145.146449,32.0537817 145.927707,32.0537817 C146.383441,32.0537817 146.878238,32.0274299 147.399076,31.9806554 C147.920566,31.9279517 148.298174,31.875248 148.52539,31.8093685 L149.514984,37.2576091 Z" id="Fill-34" fill="#4D5C6E"></path>
                    <path d="M54.5023697,12.1658768 L54.5023697,18.6661661 C57.9766622,18.6661661 60.7982889,21.4943853 60.7982889,24.9620853 C60.7982889,28.4363779 57.9700697,31.2580045 54.5023697,31.2580045 C51.0280771,31.2580045 48.2064505,28.4297853 48.2064505,24.9620853 L41.7061611,24.9620853 C41.7061611,32.0161518 47.4483031,37.7582938 54.5023697,37.7582938 C61.5564362,37.7582938 67.2985782,32.0161518 67.2985782,24.9620853 C67.2985782,17.9080188 61.5564362,12.1658768 54.5023697,12.1658768" id="Fill-35" fill="#4D5C6E"></path>
                    <path d="M82.4709472,12.7348747 L82.4709472,19.0039136 C85.8598974,19.0039136 88.6255924,21.8055345 88.6255924,25.2465843 C88.6255924,28.6942261 85.8663897,31.495847 82.4709472,31.495847 C79.081997,31.495847 76.316302,28.6942261 76.316302,25.2465843 L76.3098098,25.2465843 L76.3098098,1.73933649 L70.1486723,1.73933649 L70.1486723,25.2465843 L70.1421801,25.2465843 C70.1421801,32.1484599 75.6670778,37.7582938 82.464455,37.7582938 C89.2618321,37.7582938 94.7867299,32.1418678 94.7867299,25.2465843 C94.7867299,18.3513007 89.2683244,12.7348747 82.4709472,12.7348747" id="Fill-36" fill="#4D5C6E"></path>
                    <polygon id="Fill-37" fill="#4D5C6E" points="161.124862 49.1327014 177.251185 13.1137441 170.678371 13.1137441 164.385793 27.4859372 157.570957 13.1137441 150.7109 13.1137441 161.124862 34.6490959"></polygon>
                </g>
            </g>
        </g>
    </g>
</svg>